# xmcd
#
# Track frame offsets: 
#        150
#        15217
#        33044
#
# Disc length: 528 seconds
#
# Revision: 1
# Processed by: cddbd v1.5.2PL0 Copyright (c) Steve Scherf et al.
# Submitted via: ExactAudioCopyFreeDBPlugin 1.0
#
DISCID=0e020e03
DTITLE=Arco - Driving At Night
DYEAR=2000
DGENRE=Dreamy
TTITLE0=Driving At Night
TTITLE1=All This World
TTITLE2=Here
EXTD=
EXTT0=
EXTT1=
EXTT2=
PLAYORDER=
